<svg width="270" height="100" viewBox="0 0 270 100" fill="none" xmlns="http://www.w3.org/2000/svg">
<g clip-path="url(#clip0)">
<path d="M123.983 82.1059C112.37 90.6663 95.5362 95.2335 81.0432 95.2335C60.7214 95.2335 42.4266 87.717 28.5859 75.2163C27.4986 74.2334 28.4728 72.8935 29.7779 73.6594C44.7149 82.3495 63.1835 87.5783 82.261 87.5783C95.1271 87.5783 109.281 84.9161 122.295 79.3919C124.262 78.5567 125.906 80.6791 123.983 82.1059Z" fill="#CCCCCC"/>
<path d="M128.811 76.582C127.332 74.6856 118.998 75.6858 115.257 76.1297C114.118 76.2691 113.944 75.2773 114.97 74.5639C121.608 69.8921 132.499 71.2403 133.77 72.8062C135.04 74.381 133.439 85.2987 127.202 90.5096C126.245 91.31 125.331 90.8836 125.758 89.8228C127.158 86.3253 130.299 78.487 128.811 76.582Z" fill="#CCCCCC"/>
<path d="M115.519 41.5842V37.0432C115.519 36.356 116.041 35.8951 116.667 35.8951H136.998C137.65 35.8951 138.172 36.3649 138.172 37.0432V40.9318C138.164 41.5842 137.615 42.437 136.641 43.7852L126.106 58.8264C130.021 58.7305 134.153 59.3135 137.702 61.3144C138.503 61.7667 138.72 62.428 138.781 63.0803V67.926C138.781 68.5869 138.05 69.3614 137.285 68.9609C131.03 65.6815 122.722 65.3248 115.806 68.9958C115.101 69.3787 114.362 68.6132 114.362 67.9518V63.3501C114.362 62.6105 114.37 61.3492 115.11 60.227L127.315 42.7237H116.693C116.041 42.7237 115.519 42.2628 115.519 41.5842ZM41.3568 69.9182H35.1713C34.5799 69.8748 34.1101 69.4308 34.0666 68.8657V37.1215C34.0666 36.4864 34.5975 35.982 35.2585 35.982H41.0263C41.6265 36.0079 42.105 36.4691 42.1485 37.0432V41.1926H42.2617C43.7665 37.1822 46.5939 35.3117 50.4043 35.3117C54.2753 35.3117 56.694 37.1822 58.4337 41.1926C59.9299 37.1822 63.3314 35.3117 66.9765 35.3117C69.5687 35.3117 72.4048 36.3819 74.1359 38.7826C76.093 41.4534 75.6928 45.3331 75.6928 48.7346L75.6845 68.7691C75.6845 69.4042 75.1536 69.9176 74.4926 69.9176H68.3161C67.6986 69.8741 67.2028 69.378 67.2028 68.7691V51.945C67.2028 50.6055 67.3243 47.265 67.0289 45.9948C66.5677 43.8635 65.1843 43.2632 63.3925 43.2632C61.8963 43.2632 60.3301 44.2637 59.695 45.8644C59.0602 47.4651 59.1213 50.1442 59.1213 51.945V68.7698C59.1213 69.4049 58.5903 69.9182 57.9294 69.9182H51.7528C51.1263 69.8748 50.6395 69.3787 50.6395 68.7698L50.6309 51.945C50.6309 48.4045 51.2139 43.1935 46.8206 43.1935C42.3755 43.1935 42.5494 48.2741 42.5494 51.945V68.7698C42.5484 69.4049 42.0178 69.9182 41.3568 69.9182ZM155.675 35.3121C164.853 35.3121 169.82 43.1935 169.82 53.2156C169.82 62.8978 164.331 70.5795 155.675 70.5795C146.663 70.5795 141.756 62.6981 141.756 52.8765C141.756 42.9934 146.724 35.3121 155.675 35.3121ZM155.727 41.7929C151.169 41.7929 150.881 48.0043 150.881 51.8753C150.881 55.7553 150.82 64.037 155.674 64.037C160.468 64.037 160.694 57.3561 160.694 53.2846C160.694 50.6051 160.581 47.4037 159.772 44.8636C159.076 42.654 157.693 41.7929 155.727 41.7929ZM181.721 69.9182H175.561C174.944 69.8748 174.448 69.379 174.448 68.7698L174.439 37.0173C174.492 36.4346 175.005 35.982 175.631 35.982H181.364C181.903 36.0079 182.347 36.3736 182.469 36.8693V41.7232H182.582C184.313 37.3823 186.74 35.3117 191.012 35.3117C193.787 35.3117 196.492 36.3122 198.232 39.0524C199.85 41.5925 199.85 45.864 199.85 48.9347V68.9171C199.781 69.4739 199.267 69.9179 198.658 69.9179H192.456C191.89 69.8744 191.421 69.4567 191.36 68.9171V51.6753C191.36 48.2044 191.76 43.1238 187.488 43.1238C185.984 43.1238 184.6 44.1329 183.913 45.6639C183.043 47.6038 182.93 49.5353 182.93 51.6753V68.7695C182.921 69.4049 182.382 69.9182 181.721 69.9182ZM110.325 64.098C109.194 62.5322 107.994 61.262 107.994 58.3651V48.7263C107.994 44.6462 108.281 40.897 105.271 38.0871C102.896 35.8078 98.9639 35.0074 95.954 35.0074C90.0731 35.0074 83.4963 37.1995 82.1219 44.4724C81.9739 45.2465 82.5393 45.6553 83.0437 45.7685L89.0374 46.4122C89.6029 46.386 90.012 45.8382 90.1162 45.2814C90.6295 42.7761 92.726 41.5669 95.0836 41.5669C96.3624 41.5669 97.8065 42.0368 98.5548 43.1763C99.4248 44.4465 99.3117 46.1862 99.3117 47.6562V48.4566C95.7273 48.8654 91.0383 49.1265 87.6803 50.6055C83.8006 52.2759 81.0863 55.6946 81.0863 60.7141C81.0863 67.1432 85.1312 70.3529 90.3425 70.3529C94.7355 70.3529 97.1455 69.318 100.538 65.855C101.661 67.482 102.035 68.2737 104.088 69.9789C104.549 70.2225 105.14 70.1963 105.549 69.8313L105.558 69.8485C106.793 68.7522 109.037 66.7951 110.299 65.7426C110.804 65.3248 110.717 64.6548 110.325 64.098ZM98.1546 61.3144C97.1714 63.0545 95.6055 64.1243 93.8748 64.1243C91.4999 64.1243 90.1076 62.3148 90.1076 59.644C90.1076 54.3723 94.8314 53.4153 99.3117 53.4153V54.7549C99.312 57.1646 99.3727 59.1745 98.1546 61.3144ZM29.2383 64.098C28.1074 62.5322 26.9072 61.262 26.9072 58.3651V48.7263C26.9072 44.6462 27.1942 40.897 24.1843 38.0871C21.8094 35.8078 17.877 35.0074 14.8673 35.0074C8.98643 35.0074 2.41833 37.1995 1.03529 44.4724C0.895922 45.2465 1.45272 45.6553 1.95709 45.7685L7.95977 46.4122C8.51657 46.386 8.92538 45.8382 9.0299 45.2814C9.54323 42.7761 11.6487 41.5669 14.0059 41.5669C15.2761 41.5669 16.7202 42.0368 17.4771 43.1763C18.3382 44.4465 18.2251 46.1862 18.2251 47.6562V48.4566C14.641 48.8654 9.95204 49.1265 6.59399 50.6055C2.72294 52.2759 0 55.6946 0 60.7141C0 67.1432 4.05388 70.3529 9.25621 70.3529C13.6582 70.3529 16.0592 69.318 19.4521 65.855C20.583 67.482 20.9483 68.2737 23.0013 69.9789C23.4625 70.2225 24.0539 70.1963 24.4627 69.8313L24.4803 69.8485C25.7156 68.7522 27.9597 66.7951 29.2213 65.7426C29.7257 65.3248 29.6384 64.6548 29.2383 64.098ZM17.068 61.3144C16.0848 63.0545 14.5279 64.1243 12.7881 64.1243C10.4133 64.1243 9.0299 62.3148 9.0299 59.644C9.0299 54.3723 13.7534 53.4153 18.2251 53.4153V54.7549C18.2251 57.1646 18.2858 59.1745 17.068 61.3144Z" fill="#CCCCCC"/>
</g>
<defs>
<clipPath id="clip0">
<rect width="200" height="60.241" fill="white" transform="translate(0 35)"/>
</clipPath>
</defs>
</svg>
