<svg width="270" height="100" viewBox="0 0 270 100" fill="none" xmlns="http://www.w3.org/2000/svg">
<g clip-path="url(#clip0)">
<path d="M81.4288 34.2091C77.9445 34.2091 74.4601 34.2091 70.9758 34.2091C69.8608 34.0001 70.2789 34.8363 70.2789 35.2544C70.2789 45.568 70.2789 55.8816 70.2789 66.1952C73.9723 66.1952 77.7354 66.1952 81.4288 66.1952C81.4288 65.9862 81.4288 65.7074 81.4288 65.4983C81.4288 64.5924 81.4985 63.6168 81.4288 62.7109C81.2197 60.9687 81.7772 59.5053 83.2406 58.5297C85.4009 56.9966 87.1431 54.906 89.2336 53.3729C91.5333 51.7701 93.2755 49.6795 95.5054 47.5889C94.5298 46.7527 93.6936 45.9862 92.8573 45.1499C89.0246 41.5262 85.2615 37.8328 81.4288 34.2091Z" fill="#CCCCCC"/>
<path d="M206.376 38.3207C205.54 39.2963 204.843 40.0628 204.077 40.7597C201.638 43.1987 199.199 45.7074 196.69 48.1465C194.669 50.0977 193.903 50.0977 191.812 48.0768C191.254 47.5193 190.627 46.9618 190.07 46.3346C187.422 43.6865 184.843 41.1081 182.126 38.3904C175.923 44.5925 169.861 50.6552 163.798 56.7179C163.728 56.7876 163.659 56.8573 163.589 56.9966C162.822 57.7632 162.753 58.6691 163.519 59.4357C165.61 61.5263 167.631 63.7562 170.07 65.8468C173.624 61.2475 177.735 57.5541 181.707 53.582C186.376 57.4844 190 62.0141 194.878 66.1256C195.993 64.8015 197.038 63.6865 197.875 62.4322C199.617 59.6447 202.195 57.6238 204.425 55.3242C206.446 53.3033 206.725 53.2336 208.606 55.1848C211.115 57.7632 213.903 59.9932 215.923 63.0594C216.62 64.035 217.526 65.0803 219.059 65.7074C220.871 63.8956 222.753 62.0837 224.565 60.2022C226.237 58.4601 226.237 58.1813 224.565 56.5088C218.572 50.4461 212.648 44.5228 206.376 38.3207Z" fill="#CCCCCC"/>
<path d="M250.558 38.8782C244.425 45.0106 238.084 51.352 231.673 57.7632C234.112 60.4113 236.272 62.7806 238.92 64.9409C239.756 64.1743 240.523 63.5472 241.29 62.7806C243.938 60.2022 246.516 57.5541 249.164 54.906C250.976 53.1639 251.255 53.1639 253.136 54.9757C254.809 56.5785 256.412 58.251 258.084 59.8538C259.756 61.5263 261.499 63.1987 263.032 64.6621C265.61 62.2231 267.91 59.9932 269.931 58.0419C263.52 51.7702 257.178 45.4287 250.558 38.8782Z" fill="#CCCCCC"/>
<path d="M121.359 38.0419C115.854 42.8502 103.241 55.7422 101.708 58.1116C103.868 60.4809 106.028 62.7805 108.467 64.8015C109.652 64.5227 110.14 63.6865 110.767 63.0593C113.345 60.5506 115.854 57.9722 118.432 55.4635C120.871 53.0941 120.871 53.0941 123.38 55.5332C125.68 57.8328 127.979 60.1325 130.279 62.4321C131.185 63.2684 131.882 64.3833 132.718 64.7318C135.227 62.2927 137.457 59.9931 139.965 57.5541C133.763 51.2823 127.352 45.0105 121.359 38.0419Z" fill="#CCCCCC"/>
<rect x="145.958" y="34" width="10.453" height="32.0557" fill="#C4C4C4"/>
</g>
<defs>
<clipPath id="clip0">
<rect width="200" height="32.0557" fill="white" transform="translate(70 34)"/>
</clipPath>
</defs>
</svg>
