<svg width="270" height="100" viewBox="0 0 270 100" fill="none" xmlns="http://www.w3.org/2000/svg">
<g clip-path="url(#clip0)">
<path d="M157.566 51.9261C158.011 50.4142 158.458 48.9023 158.902 47.3888C159.471 45.4447 160.031 43.4974 160.608 41.5566C161.024 40.1638 161.735 39.6435 163.168 39.6419C164.173 39.6403 165.178 39.6386 166.181 39.6419C167.471 39.6452 168.237 40.2013 168.604 41.4424C169.545 44.6325 170.473 47.8275 171.41 51.0209C171.499 51.3308 171.599 51.6374 171.827 51.9375C171.98 51.4498 172.14 50.9654 172.285 50.4745C173.13 47.6237 173.972 44.7728 174.813 41.9203C175.301 40.2698 176.133 39.6435 177.852 39.6419C178.93 39.6403 180.008 39.637 181.086 39.6419C181.994 39.6468 182.379 40.0594 182.157 40.9466C181.872 42.0801 181.492 43.1892 181.133 44.3047C179.494 49.4177 177.85 54.5323 176.2 59.6436C175.759 61.0038 174.883 61.622 173.453 61.6268C172.654 61.6301 171.855 61.6301 171.056 61.6268C169.655 61.6203 168.735 60.9533 168.314 59.6224C167.168 55.9887 166.029 52.3534 164.884 48.718C164.824 48.5256 164.752 48.338 164.63 47.9825C164.514 48.2989 164.442 48.4718 164.385 48.6479C163.235 52.2995 162.09 55.9528 160.932 59.6029C160.497 60.9794 159.598 61.622 158.155 61.6268C157.336 61.6301 156.519 61.6317 155.7 61.6268C154.384 61.6171 153.474 60.9761 153.068 59.717C151.281 54.1816 149.505 48.6414 147.727 43.1027C147.544 42.5368 147.35 41.9741 147.19 41.4017C147.112 41.1179 147.066 40.8162 147.068 40.5242C147.071 39.9469 147.352 39.6549 147.923 39.65C149.244 39.6354 150.565 39.6191 151.884 39.6549C153.097 39.6892 153.972 40.397 154.327 41.5843C155.301 44.8429 156.263 48.1048 157.232 51.365C157.289 51.5558 157.353 51.7418 157.413 51.931" fill="#CCCCCC"/>
<path d="M134.803 52.5442V52.5735C133.782 52.5735 132.758 52.5278 131.74 52.5866C130.742 52.6453 129.904 53.0693 129.457 54.0299C128.806 55.4342 129.619 57.0064 131.251 57.3309C133.722 57.8235 135.945 57.0439 138.028 55.775C138.16 55.6951 138.238 55.4342 138.245 55.2531C138.269 54.5306 138.238 53.8049 138.261 53.0807C138.272 52.6632 138.101 52.5295 137.7 52.5376C136.734 52.5556 135.769 52.5442 134.803 52.5442ZM138.788 59.8621C138.437 60.0774 138.158 60.2519 137.876 60.4216C135.771 61.7018 133.464 62.1454 131.034 62.0313C129.467 61.9563 127.932 61.6986 126.489 61.0299C123.84 59.8034 122.392 57.5691 122.472 54.8878C122.56 51.8722 124.119 49.9314 126.838 48.8289C128.304 48.2352 129.844 48.0036 131.419 48.0004C133.482 47.9971 135.545 47.9857 137.609 48.0085C138.134 48.0151 138.285 47.852 138.23 47.3284C137.954 44.7695 136.901 43.7909 134.309 43.7746C133.278 43.7665 132.262 43.91 131.346 44.4205C130.997 44.6146 130.664 44.8804 130.4 45.1821C129.778 45.8883 129.014 46.2145 128.089 46.2129C127.215 46.2112 126.34 46.2161 125.466 46.2112C124.439 46.2064 123.964 45.6518 124.041 44.6097C124.191 42.5547 125.305 41.2173 127.133 40.4035C128.63 39.7365 130.222 39.4641 131.84 39.3352C134.089 39.1558 136.335 39.0988 138.548 39.6533C140.957 40.2567 142.947 41.4457 144.109 43.7453C144.734 44.9799 144.984 46.3042 144.984 47.6807C144.985 51.8641 144.987 56.0474 144.982 60.2291C144.982 61.2191 144.581 61.6203 143.599 61.6252C142.521 61.6317 141.441 61.6284 140.363 61.6268C139.259 61.6252 138.908 61.2908 138.84 60.1851C138.837 60.1117 138.819 60.0415 138.788 59.8621Z" fill="#CCCCCC"/>
<path d="M215.083 59.9746C214.406 59.8898 213.833 59.8409 213.269 59.743C211.382 59.4185 209.899 58.4301 208.737 56.9313C207.451 55.2759 206.633 53.3824 206.015 51.4057C204.935 47.9465 203.906 44.471 202.864 41.0004C202.608 40.1474 202.975 39.6516 203.854 39.6434C205.119 39.6336 206.383 39.6369 207.647 39.6418C208.652 39.6467 209.317 40.1474 209.617 41.1276C210.562 44.2214 211.486 47.3202 212.447 50.4076C212.835 51.652 213.326 52.8605 214.148 53.8978C214.588 54.4539 215.135 54.8388 215.841 55.0003C216.271 55.0998 216.475 54.9905 216.596 54.5452C217.71 50.4565 218.842 46.3726 219.969 42.2872C220.088 41.8582 220.202 41.426 220.328 40.9987C220.59 40.1164 221.216 39.6451 222.138 39.6418C223.384 39.6369 224.63 39.6369 225.876 39.6418C226.829 39.6467 227.213 40.1294 226.966 41.0297C225.181 47.5567 223.425 54.0902 221.575 60.5976C221.146 62.103 220.492 63.5708 219.758 64.9571C218.413 67.503 216.216 68.8469 213.321 68.8175C211.563 68.8012 209.803 68.5973 208.048 68.4163C207.153 68.3233 206.789 67.8324 206.784 66.9485C206.781 66.2977 206.773 65.6454 206.789 64.9946C206.807 64.2085 207.261 63.7241 208.052 63.7551C208.901 63.7877 209.753 63.8888 210.594 64.0193C211.814 64.2069 212.843 63.8888 213.662 62.9657C214.407 62.1242 214.796 61.113 215.083 59.9746Z" fill="#CCCCCC"/>
<path d="M105.686 50.592C105.686 47.4313 105.619 44.2673 105.721 41.1098C105.76 39.8491 106.039 38.5541 106.441 37.3537C107.283 34.8486 109.245 33.5504 111.722 32.9567C114.431 32.3076 117.179 32.3402 119.931 32.5686C120.634 32.6273 121.337 32.7235 122.03 32.8475C122.909 33.0024 123.276 33.464 123.282 34.3463C123.287 34.9595 123.295 35.5744 123.279 36.1876C123.256 37.0699 122.803 37.5331 121.919 37.5185C121.291 37.5087 120.653 37.4744 120.037 37.3586C118.357 37.0406 116.698 37.1629 115.059 37.5478C113.485 37.9164 112.738 38.8884 112.505 40.7395C112.435 41.2908 112.438 41.8518 112.383 42.4064C112.331 42.9071 112.51 43.0946 113.034 43.0881C115.097 43.0636 117.162 43.0767 119.226 43.0783C120.324 43.0799 120.706 43.4583 120.71 44.5494C120.714 45.2197 120.722 45.8884 120.706 46.5587C120.686 47.4443 120.236 47.8879 119.345 47.8912C117.243 47.8993 115.142 47.9091 113.042 47.8847C112.531 47.8781 112.373 48.0314 112.376 48.5452C112.394 52.3958 112.386 56.2448 112.385 60.0938C112.385 61.2599 112.018 61.6253 110.851 61.6269C109.623 61.6285 108.397 61.6285 107.169 61.6269C106.03 61.6253 105.654 61.2567 105.652 60.133C105.65 56.9526 105.65 53.7723 105.65 50.592" fill="#CCCCCC"/>
<path d="M191.813 42.0964C192.426 41.6854 192.896 41.3576 193.377 41.0478C195.551 39.6419 197.974 39.1999 200.512 39.2293C201.243 39.239 201.688 39.6924 201.707 40.4329C201.735 41.4555 201.737 42.4797 201.704 43.5007C201.681 44.2852 201.256 44.7092 200.466 44.7141C199.538 44.7222 198.604 44.7059 197.681 44.6162C195.825 44.4352 194.321 45.112 192.959 46.3206C192.124 47.0626 191.759 47.8618 191.785 49.0214C191.866 52.7024 191.816 56.385 191.814 60.0677C191.813 61.2501 191.431 61.6268 190.237 61.6268C188.954 61.6285 187.67 61.6317 186.388 61.6252C185.498 61.6203 185.046 61.1767 185.046 60.2846C185.041 53.8506 185.041 47.4165 185.044 40.9809C185.046 40.092 185.494 39.6468 186.387 39.6435C187.763 39.637 189.138 39.6354 190.514 39.6435C191.336 39.65 191.785 40.0969 191.811 40.9189C191.821 41.2663 191.813 41.6153 191.813 42.0964Z" fill="#CCCCCC"/>
<path d="M95.1912 50.4288C95.1912 64.8136 83.5301 76.4764 69.1453 76.4764C66.4069 76.4764 63.7681 76.0524 61.2874 75.2696C57.5542 74.0904 54.1831 72.0925 51.3877 69.4863C46.2878 64.7305 43.0977 57.9523 43.0977 50.4288C43.0977 36.0424 54.7588 24.3812 69.1453 24.3812C72.2587 24.3812 75.2449 24.9276 78.0126 25.9306C81.6105 27.2321 84.8397 29.305 87.5014 31.9487C92.2507 36.6687 95.1912 43.2054 95.1912 50.4288Z" fill="#CCCCCC"/>
<path d="M81.2289 61.4914L77.7223 59.7382C77.7223 59.7382 71.7401 70.6279 61.2874 75.2695C57.5542 74.0904 54.1831 72.0925 51.3877 69.4846C53.6775 69.1519 57.3912 67.976 61.3005 64.1319C67.6807 57.8561 69.1453 54.4034 69.1453 54.4034L66.4102 52.58C65.4708 51.9537 65.6518 50.5234 66.7185 50.1516L78.7515 45.9601C79.5702 45.6747 80.4444 46.2145 80.5569 47.0724L82.3444 60.6972C82.426 61.312 81.7834 61.7687 81.2289 61.4914Z" fill="white"/>
<path d="M84.8546 46.4103C84.5594 47.154 83.4732 47.0447 83.3362 46.2553L82.5338 41.6414L76.5858 43.4909C75.9269 43.6948 75.3414 43.0212 75.6349 42.3982C76.408 40.7477 77.5659 37.9376 78.4548 34.3185C79.298 30.8871 78.6848 27.8731 78.0128 25.9307C81.6107 27.2321 84.8415 29.3051 87.5032 31.9488C87.9827 37.4075 86.1137 43.2202 84.8546 46.4103Z" fill="white"/>
</g>
<defs>
<clipPath id="clip0">
<rect width="183.902" height="52" fill="white" transform="translate(43 24)"/>
</clipPath>
</defs>
</svg>
