<svg width="40" height="40" viewBox="0 0 40 40" fill="none" xmlns="http://www.w3.org/2000/svg">
<path d="M20.3125 16.0938H22.6562V11.4062H20.3125V6.71875V2.03125H0V6.71875V11.4062H2.34375V16.0938H0V20.7812V25.4688H2.34375V30.1562H0V34.8438H20.3125V30.1562H22.6562V25.4688H20.3125V20.7812V16.0938Z" fill="#FFEA84"/>
<path d="M20.3125 16.0938H22.6562V11.4062H20.3125V6.71875V2.03125H11.3281V34.8438H20.3125V30.1562H22.6562V25.4688H20.3125V20.7812V16.0938Z" fill="#FFDC40"/>
<path d="M22.6562 25.4688H2.34375V30.1562H22.6562V25.4688Z" fill="#FFDC40"/>
<path d="M20.3125 16.0938H0V20.7812H20.3125V16.0938Z" fill="#FFDC40"/>
<path d="M20.3125 6.71875H0V11.4062H20.3125V6.71875Z" fill="#FFDC40"/>
<path d="M20.3125 16.0938H11.3281V20.7812H20.3125V16.0938Z" fill="#FFAB15"/>
<path d="M20.3125 6.71875H11.3281V11.4062H20.3125V6.71875Z" fill="#FFAB15"/>
<path d="M22.6562 25.4688H11.3281V30.1562H22.6562V25.4688Z" fill="#FFAB15"/>
<path d="M28.6719 37.9688C22.4255 37.9688 17.3438 32.887 17.3438 26.6406C17.3438 20.3943 22.4255 15.3125 28.6719 15.3125C34.9182 15.3125 40 20.3943 40 26.6406C40 32.887 34.9182 37.9688 28.6719 37.9688Z" fill="#76CC5B"/>
<path d="M28.6719 15.3125V37.9688C34.9182 37.9688 40 32.887 40 26.6406C40 20.3943 34.9182 15.3125 28.6719 15.3125Z" fill="#599944"/>
<path d="M32.1875 28.9844C32.1875 27.0459 30.6104 25.4688 28.6719 25.4688C28.0257 25.4688 27.5 24.943 27.5 24.2969C27.5 24.035 27.5842 23.7876 27.7437 23.5814C27.9915 23.2608 28.4138 23.1 28.845 23.1616L31.2405 23.5038L31.572 21.1836L29.8438 20.9368V19.6094H27.5V21.0009C26.8687 21.2184 26.305 21.6103 25.8893 22.148C25.4098 22.7684 25.1562 23.5115 25.1562 24.2969C25.1562 26.2354 26.7334 27.8125 28.6719 27.8125C29.318 27.8125 29.8438 28.3382 29.8438 28.9844C29.8438 29.5705 29.4069 30.07 28.8276 30.1461C28.769 30.1538 28.6955 30.154 28.6089 30.1465L26.0376 29.9261L25.8374 32.2613L27.5 32.4038V33.6719H29.8438V32.2984C31.2194 31.8108 32.1875 30.4937 32.1875 28.9844Z" fill="#F2F2F4"/>
<path d="M28.6719 19.6094V23.149C28.7291 23.1494 28.787 23.1533 28.845 23.1616L31.2405 23.5037L31.572 21.1835L29.8437 20.9368V19.6094H28.6719Z" fill="#DFDFE1"/>
<path d="M28.6719 25.4688V27.8125C29.318 27.8125 29.8438 28.3382 29.8438 28.9844C29.8438 29.5705 29.4069 30.07 28.8276 30.1461C28.7838 30.1519 28.7316 30.1534 28.6719 30.1507V33.6719H29.8438V32.2984C31.2194 31.8108 32.1875 30.4937 32.1875 28.9844C32.1875 27.0459 30.6104 25.4688 28.6719 25.4688Z" fill="#DFDFE1"/>
</svg>
