<svg width="40" height="40" viewBox="0 0 40 40" fill="none" xmlns="http://www.w3.org/2000/svg">
<g clip-path="url(#clip0)">
<path d="M12.9805 28.0615H27.019V40H12.9805V28.0615Z" fill="#FAF0F0"/>
<path d="M20 28.0615H27.0192V40H20V28.0615Z" fill="#EFE2DD"/>
<path d="M12.5899 28.0615C8.07385 28.0615 4.3999 31.7355 4.3999 36.2514V40H14.5431V28.0615H12.5899Z" fill="#F04E44"/>
<path d="M27.4097 28.0615H25.4565V40H35.5997V36.2515C35.5997 31.7355 31.9257 28.0615 27.4097 28.0615Z" fill="#F04E44"/>
<path d="M27.4097 28.0615H25.4565V40H35.5997V36.2515C35.5997 31.7355 31.9257 28.0615 27.4097 28.0615Z" fill="#D8342A"/>
<path d="M17.135 20.3963L18.5014 19.8237C19.4538 19.4245 20.5462 19.4245 21.4986 19.8237L22.8648 20.3963C24.5182 21.0892 26.2656 21.4407 28.0586 21.4407H28.9369C29.5593 20.0475 29.8896 18.5282 29.8896 16.9872V9.37372H10.1104V16.9872C10.1104 18.5282 10.4407 20.0475 11.063 21.4407H11.9413C13.7344 21.4407 15.4818 21.0892 17.135 20.3963Z" fill="#FFDDCE"/>
<path d="M20 9.37374V19.5242C20.5112 19.5242 21.0224 19.624 21.4986 19.8236L22.8649 20.3962C24.5182 21.0892 26.2656 21.4406 28.0586 21.4406H28.9369C29.5593 20.0474 29.8896 18.5282 29.8896 16.9872V9.37366H20V9.37374Z" fill="#FFCBBC"/>
<path d="M14.9214 13.7902H17.2651V16.1341H14.9214V13.7902Z" fill="#5D5655"/>
<path d="M22.7349 13.7902H25.0786V16.1341H22.7349V13.7902Z" fill="#5D5655"/>
<path d="M10.1104 6.25031V10.4362L16.7572 12.1638C17.8154 12.4389 18.9065 12.5784 20 12.5784C21.0934 12.5784 22.1844 12.4389 23.2427 12.1638L29.8896 10.4362V6.25031H10.1104Z" fill="#5D5655"/>
<path d="M29.8895 10.4362V6.25031H20V12.5784C21.0934 12.5784 22.1844 12.4389 23.2427 12.1638L29.8895 10.4362Z" fill="#3B3735"/>
<path d="M15.3931 24.4765V28.0615L19.4238 33.8823H20.5763L24.6061 28.0615V24.4766L15.3931 24.4765Z" fill="#FFDDCE"/>
<path d="M20.5767 33.8823L24.6065 28.0615V24.4766H20V33.8823H20.5767Z" fill="#FFCBBC"/>
<path d="M18.8288 35.1339V40H21.1726V35.1339C24.0937 35.5279 26.6405 37.3714 27.932 40H30.4789C29.7511 38.0449 28.4689 36.3002 26.8051 35.021C24.8392 33.5094 22.4862 32.7105 20.0007 32.7105C17.5151 32.7105 15.1622 33.5095 13.1963 35.021C11.5324 36.3002 10.2503 38.0449 9.52246 40H12.0694C13.3608 37.3714 15.9077 35.5279 18.8288 35.1339Z" fill="#5D5655"/>
<path d="M30.2711 7.6954C31.1677 6.71646 31.4699 5.37462 31.0794 4.10591C30.6889 2.83727 29.6845 1.89748 28.3926 1.59215L23.2532 0.377425C21.1242 -0.125795 18.877 -0.125795 16.7481 0.377347L11.6073 1.59223C10.3154 1.89748 9.31093 2.83719 8.92037 4.10583C8.52981 5.37454 8.83185 6.71646 9.72852 7.69556L10.1102 8.11221H29.8894L30.2711 7.6954Z" fill="#F04E44"/>
<path d="M28.0584 19.0969C26.5782 19.0969 25.1356 18.8068 23.7706 18.2347L22.4044 17.6621C20.8762 17.0215 19.1232 17.0213 17.5951 17.6621L16.2288 18.2347C14.8639 18.8068 13.4212 19.0969 11.9411 19.0969H10.3174C10.6633 20.8453 11.4344 22.4986 12.5718 23.8906C14.1592 25.8334 16.3875 27.1789 18.8461 27.6789L19.9999 27.9136L21.1537 27.6789C23.6122 27.1789 25.8404 25.8334 27.4279 23.8906C28.5653 22.4986 29.3364 20.8452 29.6823 19.0969H28.0584Z" fill="#E1EBF0"/>
<path d="M22.7349 13.7902H25.0786V16.1341H22.7349V13.7902Z" fill="#3B3735"/>
<path d="M21.1536 27.6789C23.6122 27.1789 25.8404 25.8334 27.4278 23.8906C28.5652 22.4986 29.3363 20.8452 29.6823 19.0969H28.0586C26.5784 19.0969 25.1358 18.8068 23.7708 18.2347L22.4046 17.6621C21.6405 17.3417 20.8203 17.1816 20 17.1816V27.9137L21.1536 27.6789Z" fill="#BED9DD"/>
<path d="M26.8048 35.0209C24.8389 33.5094 22.4859 32.7104 20.0004 32.7104C20.0001 32.7104 19.9998 32.7104 19.9995 32.7104V40H21.1723V35.134C24.0934 35.5279 26.6402 37.3715 27.9317 40H30.4786C29.7508 38.0449 28.4686 36.3001 26.8048 35.0209Z" fill="#3B3735"/>
<path d="M30.2712 7.69541C31.1678 6.71647 31.47 5.37463 31.0795 4.10592C30.689 2.83728 29.6846 1.89748 28.3927 1.59216L23.2533 0.377434C22.1886 0.125785 21.0943 -7.80912e-05 20 3.63497e-08V8.11222H29.8895L30.2712 7.69541Z" fill="#D8342A"/>
</g>
<defs>
<clipPath id="clip0">
<rect width="40" height="40" fill="white"/>
</clipPath>
</defs>
</svg>
