<svg width="40" height="40" viewBox="0 0 40 40" fill="none" xmlns="http://www.w3.org/2000/svg">
<path d="M32.3694 12.3695V13.2812H30.0257V12.3695C30.0257 6.84141 25.528 2.34375 19.9999 2.34375C14.4718 2.34375 9.97412 6.84141 9.97412 12.3695V13.2812H7.63037V12.3695C7.63037 5.54922 13.1788 0 19.9999 0C26.821 0 32.3694 5.54922 32.3694 12.3695Z" fill="#393E9F"/>
<path d="M32.3695 12.3695V13.2812H30.0258V12.3695C30.0258 6.84141 25.5281 2.34375 20 2.34375V0C26.8211 0 32.3695 5.54922 32.3695 12.3695Z" fill="#340D66"/>
<path d="M13.6943 19.4214H9.39965C8.3241 19.4214 7.45215 18.5494 7.45215 17.4739V14.0441C7.45215 12.9686 8.3241 12.0966 9.39965 12.0966H13.6943V19.4214Z" fill="#FE4945"/>
<path d="M26.1494 19.4214H30.6005C31.6761 19.4214 32.548 18.5494 32.548 17.4739V14.0441C32.548 12.9686 31.6761 12.0966 30.6005 12.0966H26.1494V19.4214Z" fill="#FA185E"/>
<path d="M40 36.6867V40H31.9305L30.7586 38.8281L29.5867 40H10.4133L9.24141 38.8281L8.06953 40H0V36.6867C0 35.2539 0.920313 33.9843 2.28125 33.5375L14.2859 29.6031H25.7477V29.614L37.7188 33.5375C39.0797 33.9843 40 35.2539 40 36.6867Z" fill="#13CFFE"/>
<path d="M40 36.6867V40H31.9305L30.7586 38.8281L29.5867 40H20V29.6031H25.7477V29.614L37.7188 33.5375C39.0797 33.9843 40 35.2539 40 36.6867Z" fill="#28ABF9"/>
<path d="M25.7478 23.9321V29.6032C25.7478 29.6032 22.8572 32.4602 20.0002 32.4602C17.1432 32.4602 14.2861 29.6032 14.2861 29.6032V23.9321H25.7478Z" fill="#FFB9AB"/>
<path d="M25.7477 23.9321V29.6032C25.7477 29.6032 22.857 32.4602 20 32.4602V23.9321H25.7477Z" fill="#E39E8D"/>
<path d="M27.4001 11.9313V14.3906L26.6407 15.2086H13.3595L12.6001 14.3906V11.9313C12.6001 9.8875 13.4282 8.0375 14.7673 6.69844C16.1063 5.35937 17.9563 4.53125 20.0001 4.53125C24.0868 4.53125 27.4001 7.84453 27.4001 11.9313Z" fill="#FFB81F"/>
<path d="M27.4 11.9313V14.3906L26.6406 15.2086H20V4.53125C24.0867 4.53125 27.4 7.84453 27.4 11.9313Z" fill="#FC9B28"/>
<path d="M27.4001 14.3953V19.4633C27.4001 19.986 27.3524 20.4961 27.261 20.9899C27.1868 21.3922 26.1493 22.1618 26.1493 22.1618C26.1493 22.1618 26.6446 22.961 26.4462 23.3336C25.1767 25.7258 22.7657 27.3407 20.0001 27.3407C17.9563 27.3407 16.1063 26.4594 14.7673 25.0336C13.4282 23.6078 12.6001 21.6391 12.6001 19.4633V14.3953H16.547C17.8759 14.3953 19.0876 13.8907 20.0001 13.0625C21.036 12.1219 21.6868 10.7649 21.6868 9.25629C21.6868 12.0946 23.9876 14.3953 26.8259 14.3953H27.4001Z" fill="#FCCBC3"/>
<path d="M27.4 14.3953V19.4633C27.4 19.986 27.3523 20.4961 27.2609 20.9899C27.1867 21.3922 26.1492 22.1618 26.1492 22.1618C26.1492 22.1618 26.6445 22.961 26.4461 23.3336C25.1766 25.7258 22.7656 27.3407 20 27.3407V13.0625C21.0359 12.1219 21.6867 10.7649 21.6867 9.25629C21.6867 12.0946 23.9875 14.3953 26.8258 14.3953H27.4Z" fill="#FFB9AB"/>
<path d="M27.2611 20.9898C27.1072 21.8265 26.8283 22.6148 26.4463 23.3336H21.3447V20.9898H27.2611Z" fill="#340D66"/>
<path d="M8.06934 36.4062H10.4131V40H8.06934V36.4062Z" fill="#28ABF9"/>
<path d="M29.5869 36.4062H31.9307V40H29.5869V36.4062Z" fill="#318DEF"/>
</svg>
