<svg width="167" height="50" viewBox="0 0 167 50" fill="none" xmlns="http://www.w3.org/2000/svg">
<path d="M74.9047 23.3694V25.0193C74.9047 28.0716 73.9354 30.5258 71.9761 32.4232C70.0169 34.3205 67.5008 35.2486 64.4279 35.2486C61.1281 35.2486 58.4058 34.1762 56.2403 32.0313C54.0749 29.8865 53.0024 27.2673 53.0024 24.1944C53.0024 21.0802 54.0749 18.461 56.2197 16.2955C58.3646 14.1507 61.025 13.0576 64.1804 13.0576C66.1809 13.0576 67.9958 13.5113 69.625 14.4188C71.2749 15.3262 72.5536 16.5224 73.461 18.0279L69.8725 20.0903C69.3569 19.2241 68.5939 18.5022 67.5627 17.966C66.5315 17.4092 65.3972 17.1411 64.1392 17.1411C62.1181 17.1411 60.4476 17.801 59.1276 19.1416C57.8077 20.4821 57.1684 22.1526 57.1684 24.1737C57.1684 26.1742 57.8284 27.8447 59.1689 29.1646C60.4888 30.4845 62.2624 31.1239 64.4485 31.1239C66.0778 31.1239 67.4183 30.7733 68.4908 30.0514C69.5632 29.3296 70.285 28.3397 70.6768 27.0817H64.2217V23.3694H74.9047Z" fill="white"/>
<path d="M90.6818 32.939C89.1144 34.4858 87.2171 35.2695 84.9485 35.2695C82.6799 35.2695 80.7825 34.4858 79.2357 32.939C77.689 31.3923 76.9053 29.4743 76.9053 27.2263C76.9053 24.9783 77.689 23.0603 79.2357 21.5136C80.7825 19.9668 82.7005 19.1831 84.9485 19.1831C87.1964 19.1831 89.1144 19.9668 90.6818 21.5136C92.2492 23.0603 93.0329 24.9783 93.0329 27.2263C93.0329 29.4743 92.2492 31.3716 90.6818 32.939ZM81.9993 30.2373C82.783 31.021 83.7523 31.4335 84.9485 31.4335C86.124 31.4335 87.1139 31.0417 87.8976 30.2373C88.6813 29.4537 89.0938 28.4431 89.0938 27.2263C89.0938 26.0095 88.702 24.999 87.8976 24.2153C87.1139 23.4316 86.124 23.0191 84.9485 23.0191C83.7729 23.0191 82.783 23.4109 81.9993 24.2153C81.2156 24.999 80.8238 26.0095 80.8238 27.2263C80.8444 28.4431 81.2362 29.433 81.9993 30.2373Z" fill="white"/>
<path d="M109.841 34.8365H105.263L99.715 27.907V34.8365H95.7759V13.5117H99.715V26.3396L104.953 19.6163H109.635L103.51 27.1439L109.841 34.8365Z" fill="white"/>
<path d="M129.867 19.5957H133.641L129.207 34.8365H125.35L122.463 25.5972L119.576 34.8365H115.719L111.244 19.5957H115.41L118.008 28.9588L120.792 19.5957H124.505L127.289 28.9794L129.867 19.5957Z" fill="white"/>
<path d="M147.149 19.5956H151.088V34.8364H147.149V33.0421C145.974 34.527 144.324 35.2695 142.179 35.2695C140.158 35.2695 138.405 34.4858 136.961 32.939C135.517 31.3923 134.775 29.4743 134.775 27.2263C134.775 24.9783 135.497 23.0603 136.961 21.5136C138.405 19.9668 140.158 19.1831 142.179 19.1831C144.303 19.1831 145.974 19.9256 147.149 21.4105V19.5956ZM139.89 30.2992C140.673 31.1035 141.684 31.4954 142.901 31.4954C144.117 31.4954 145.128 31.1035 145.932 30.2992C146.737 29.4949 147.128 28.4637 147.128 27.2057C147.128 25.9476 146.737 24.9165 145.932 24.1121C145.128 23.3078 144.117 22.916 142.901 22.916C141.684 22.916 140.673 23.3078 139.89 24.1121C139.106 24.9165 138.693 25.9476 138.693 27.2057C138.714 28.4843 139.106 29.5155 139.89 30.2992Z" fill="white"/>
<path d="M159.4 31.1449H166.164V34.8365H154.161V32.2173L160.575 23.2873H154.45V19.5957H165.855V22.2149L159.4 31.1449Z" fill="white"/>
<path d="M10.9511 22.3386L6.97078 16.6465L0 21.7405V28.3401C0.515589 27.5357 1.11368 26.7727 1.81488 26.0715C4.28971 23.5966 7.32138 22.3592 10.9511 22.3386Z" fill="#F04E44"/>
<path d="M1.85612 44.2614C1.1343 43.5396 0.515589 42.7765 0 41.9722C0.103118 48.2005 6.49643 52.0365 11.5905 48.8604L13.1991 47.8499C12.601 47.9324 11.9617 47.953 11.3223 47.953C7.50699 47.9736 4.3722 46.7362 1.85612 44.2614Z" fill="#F04E44"/>
<path d="M17.0353 11.4492C18.7264 9.75804 20.6856 8.64436 22.8924 8.10815L11.57 1.11676C8.51774 -0.759983 5.01173 -0.141278 2.66064 2.00357L13.6118 17.6569C14.1067 15.3058 15.241 13.2228 17.0353 11.4492Z" fill="#F04E44"/>
<path d="M0.103118 6.8501C0.0412471 7.28319 0 7.73691 0 8.19063V15.7182L4.16596 12.6659L0.103118 6.8501Z" fill="#F04E44"/>
<path d="M31.7811 14.7282C30.255 13.202 28.3576 12.439 26.1096 12.439C23.8617 12.439 21.9643 13.202 20.4381 14.7282C18.912 16.2543 18.1489 18.1929 18.1489 20.544C18.1489 22.5858 18.7264 24.2975 19.8607 25.6999C20.0463 25.9268 20.2319 26.133 20.4381 26.3393C20.5206 26.4217 20.6238 26.5249 20.7269 26.6074C22.2118 27.9479 24.006 28.6078 26.1096 28.6078C28.3576 28.6078 30.255 27.8448 31.7811 26.3393C33.3073 24.8337 34.0703 22.8951 34.0703 20.544C34.0703 18.1929 33.3073 16.2543 31.7811 14.7282Z" fill="#F04E44"/>
<path d="M39.0198 18.0281L38.6486 17.8013C38.8136 18.6675 38.9167 19.5955 38.9167 20.5442C38.9167 24.1327 37.6793 27.1644 35.1839 29.6598C32.6884 32.1347 29.6567 33.3721 26.0889 33.3721C22.8716 33.3721 20.108 32.3615 17.7982 30.361L16.5195 29.103C16.4989 29.0824 16.4783 29.0617 16.4577 29.0411C16.437 29.0205 16.4164 29.0205 16.4164 28.9999L16.3958 28.9792C15.9833 28.608 15.509 28.278 14.9728 27.9893C13.7766 27.35 12.4567 27.0406 11.013 27.0406C8.66194 27.0406 6.72333 27.8037 5.21781 29.3505C3.71229 30.8972 2.94922 32.8359 2.94922 35.1869C2.94922 37.5174 3.71228 39.4354 5.25905 40.9409C6.80582 42.4464 8.82693 43.2095 11.3636 43.2095C13.2404 43.2095 14.8078 42.797 16.0246 41.9515C17.262 41.1265 18.0869 39.9716 18.5406 38.5073H11.0749V34.2176H23.449V36.115C23.449 38.5692 22.9128 40.6728 21.8198 42.4877L39.0611 31.7428C44.1551 28.5874 44.1345 21.1835 39.0198 18.0281Z" fill="#F04E44"/>
</svg>
