<svg width="167" height="50" viewBox="0 0 167 50" fill="none" xmlns="http://www.w3.org/2000/svg">
<path d="M74.9047 23.3696V25.0195C74.9047 28.0718 73.9354 30.526 71.9761 32.4233C70.0169 34.3207 67.5008 35.2488 64.4279 35.2488C61.1281 35.2488 58.4058 34.1763 56.2403 32.0315C54.0749 29.8866 53.0024 27.2674 53.0024 24.1945C53.0024 21.0804 54.0749 18.4612 56.2197 16.2957C58.3646 14.1509 61.025 13.0578 64.1804 13.0578C66.1809 13.0578 67.9958 13.5115 69.625 14.419C71.2749 15.3264 72.5536 16.5226 73.461 18.0281L69.8725 20.0904C69.3569 19.2242 68.5939 18.5024 67.5627 17.9662C66.5315 17.4094 65.3972 17.1413 64.1392 17.1413C62.1181 17.1413 60.4476 17.8012 59.1276 19.1418C57.8077 20.4823 57.1684 22.1528 57.1684 24.1739C57.1684 26.1744 57.8284 27.8449 59.1689 29.1648C60.4888 30.4847 62.2624 31.1241 64.4485 31.1241C66.0778 31.1241 67.4183 30.7734 68.4908 30.0516C69.5632 29.3298 70.285 28.3399 70.6768 27.0818H64.2217V23.3696H74.9047Z" fill="#252745"/>
<path d="M90.6818 32.9389C89.1144 34.4857 87.2171 35.2694 84.9485 35.2694C82.6799 35.2694 80.7825 34.4857 79.2357 32.9389C77.689 31.3921 76.9053 29.4741 76.9053 27.2262C76.9053 24.9782 77.689 23.0602 79.2357 21.5135C80.7825 19.9667 82.7005 19.183 84.9485 19.183C87.1964 19.183 89.1144 19.9667 90.6818 21.5135C92.2492 23.0602 93.0329 24.9782 93.0329 27.2262C93.0329 29.4741 92.2492 31.3715 90.6818 32.9389ZM81.9993 30.2372C82.783 31.0209 83.7523 31.4334 84.9485 31.4334C86.124 31.4334 87.1139 31.0415 87.8976 30.2372C88.6813 29.4535 89.0938 28.443 89.0938 27.2262C89.0938 26.0094 88.702 24.9988 87.8976 24.2151C87.1139 23.4314 86.124 23.019 84.9485 23.019C83.7729 23.019 82.783 23.4108 81.9993 24.2151C81.2156 24.9988 80.8238 26.0094 80.8238 27.2262C80.8444 28.443 81.2362 29.4329 81.9993 30.2372Z" fill="#252745"/>
<path d="M109.841 34.8363H105.263L99.715 27.9068V34.8363H95.7759V13.5115H99.715V26.3394L104.953 19.6161H109.635L103.51 27.1437L109.841 34.8363Z" fill="#252745"/>
<path d="M129.867 19.5955H133.641L129.207 34.8363H125.35L122.463 25.5969L119.576 34.8363H115.719L111.244 19.5955H115.41L118.008 28.9586L120.792 19.5955H124.505L127.289 28.9792L129.867 19.5955Z" fill="#252745"/>
<path d="M147.149 19.5955H151.088V34.8363H147.149V33.042C145.974 34.5269 144.324 35.2694 142.179 35.2694C140.158 35.2694 138.405 34.4857 136.961 32.9389C135.517 31.3921 134.775 29.4741 134.775 27.2262C134.775 24.9782 135.497 23.0602 136.961 21.5135C138.405 19.9667 140.158 19.183 142.179 19.183C144.303 19.183 145.974 19.9254 147.149 21.4103V19.5955ZM139.89 30.2991C140.673 31.1034 141.684 31.4953 142.901 31.4953C144.117 31.4953 145.128 31.1034 145.932 30.2991C146.737 29.4948 147.128 28.4636 147.128 27.2056C147.128 25.9475 146.737 24.9163 145.932 24.112C145.128 23.3077 144.117 22.9159 142.901 22.9159C141.684 22.9159 140.673 23.3077 139.89 24.112C139.106 24.9163 138.693 25.9475 138.693 27.2056C138.714 28.4842 139.106 29.5154 139.89 30.2991Z" fill="#252745"/>
<path d="M159.4 31.1447H166.164V34.8363H154.161V32.2171L160.575 23.2871H154.45V19.5955H165.855V22.2147L159.4 31.1447Z" fill="#252745"/>
<path d="M10.9511 22.3384L6.97078 16.6463L0 21.7403V28.3399C0.515589 27.5356 1.11368 26.7725 1.81488 26.0713C4.28971 23.5964 7.32138 22.359 10.9511 22.3384Z" fill="#F04E44"/>
<path d="M1.85612 44.2613C1.1343 43.5394 0.515589 42.7764 0 41.972C0.103118 48.2004 6.49643 52.0364 11.5905 48.8603L13.1991 47.8498C12.601 47.9323 11.9617 47.9529 11.3223 47.9529C7.50699 47.9735 4.3722 46.7361 1.85612 44.2613Z" fill="#F04E44"/>
<path d="M17.0348 11.4492C18.7259 9.75804 20.6852 8.64436 22.8919 8.10815L11.5695 1.11676C8.51725 -0.759983 5.01124 -0.141278 2.66016 2.00357L13.6113 17.6569C14.1062 15.3058 15.2405 13.2228 17.0348 11.4492Z" fill="#F04E44"/>
<path d="M0.103118 6.8501C0.0412471 7.28319 0 7.73691 0 8.19063V15.7182L4.16596 12.6659L0.103118 6.8501Z" fill="#F04E44"/>
<path d="M31.7806 14.7283C30.2545 13.2022 28.3571 12.4391 26.1091 12.4391C23.8612 12.4391 21.9638 13.2022 20.4377 14.7283C18.9115 16.2544 18.1484 18.1931 18.1484 20.5442C18.1484 22.5859 18.7259 24.2976 19.8602 25.7C20.0458 25.9269 20.2314 26.1331 20.4377 26.3394C20.5202 26.4219 20.6233 26.525 20.7264 26.6075C22.2113 27.948 24.0055 28.608 26.1091 28.608C28.3571 28.608 30.2545 27.8449 31.7806 26.3394C33.3068 24.8339 34.0698 22.8952 34.0698 20.5442C34.0698 18.1931 33.3068 16.2544 31.7806 14.7283Z" fill="#F04E44"/>
<path d="M39.0198 18.0281L38.6486 17.8012C38.8136 18.6674 38.9167 19.5955 38.9167 20.5441C38.9167 24.1326 37.6793 27.1643 35.1839 29.6598C32.6884 32.1346 29.6567 33.372 26.0889 33.372C22.8716 33.372 20.108 32.3614 17.7982 30.361L16.5195 29.1029C16.4989 29.0823 16.4783 29.0617 16.4577 29.0411C16.437 29.0204 16.4164 29.0204 16.4164 28.9998L16.3958 28.9792C15.9833 28.608 15.509 28.278 14.9728 27.9893C13.7766 27.3499 12.4567 27.0406 11.013 27.0406C8.66194 27.0406 6.72333 27.8036 5.21781 29.3504C3.71229 30.8972 2.94922 32.8358 2.94922 35.1869C2.94922 37.5173 3.71228 39.4353 5.25905 40.9409C6.80582 42.4464 8.82693 43.2094 11.3636 43.2094C13.2404 43.2094 14.8078 42.797 16.0246 41.9514C17.262 41.1265 18.0869 39.9715 18.5406 38.5073H11.0749V34.2176H23.449V36.1149C23.449 38.5691 22.9128 40.6727 21.8198 42.4876L39.0611 31.7427C44.1551 28.5873 44.1345 21.1835 39.0198 18.0281Z" fill="#F04E44"/>
</svg>
